<svg width="157" height="150" viewBox="0 0 157 150" fill="none" xmlns="http://www.w3.org/2000/svg">
<g clip-path="url(#clip0_1105_14004)">
<path d="M60.8185 27.0456C66.8962 27.6106 72.7964 29.4283 78.1496 32.3851C78.6585 32.69 79.2272 32.8802 79.816 32.9425C80.4049 33.0049 80.9997 32.9378 81.5593 32.746C90.2801 29.929 99.7383 30.4225 108.143 34.1328C122.426 40.1887 130.316 49.7979 130.687 65.5806C130.872 72.7107 130.441 79.8414 129.399 86.8927C129.156 88.5644 128.662 90.2058 128.291 91.8235C127.745 94.179 126.009 94.7308 125.339 93.4863C123.77 90.6924 126.84 66.6777 122.473 55.571C116.965 41.6812 98.7658 34.8058 87.1238 37.393C86.1048 37.6242 85.9138 38.1288 86.4922 38.9576C87.3391 40.1826 88.1727 41.4397 89.0063 42.6968C90.337 45.0711 91.1892 47.6838 91.514 50.3854C91.8388 53.087 91.6299 55.8246 90.8992 58.4416C86.7484 72.6402 69.2392 74.888 64.0211 62.6114C62.3501 58.5372 62.0183 54.0384 63.074 49.7709C64.1297 45.5034 66.5176 41.6907 69.8897 38.8886C70.4599 38.4683 71.479 38.2371 71.4068 37.414C71.3345 36.591 70.1926 36.3929 69.4513 36.1372C54.539 31.0053 46.032 36.5176 40.4614 37.5488C40.1912 37.6196 39.9317 37.726 39.6895 37.8652C33.1776 41.3872 24.4152 44.6594 12.8799 57.2753C7.26979 63.3854 9.50132 61.3249 8.23666 62.5095C6.97199 63.694 4.5598 62.338 6.98881 58.6243C8.80717 55.8093 10.8022 53.1136 12.962 50.5534C18.1792 43.5593 24.887 37.8241 32.5985 33.764C34.7753 32.6052 50.8603 26.1714 60.8185 27.0456ZM78.7087 41.189C78.4182 40.9463 78.0582 40.8029 77.6814 40.78C77.3046 40.757 76.9307 40.8557 76.6146 41.0615C74.6075 42.0589 72.8362 43.4741 71.4184 45.213C70.0006 46.9519 68.9687 48.9748 68.3912 51.1473C66.9267 57.3434 68.8255 65.1452 75.4353 65.4201C77.4423 65.3434 79.381 64.6787 81.0123 63.5081C82.6437 62.3374 83.8961 60.7121 84.6153 58.8325C85.6836 55.6544 85.6846 52.2092 84.618 49.0232C83.5515 45.8373 81.476 43.0858 78.7087 41.189Z" fill="#9FA8BE" fill-opacity="0.6"/>
<path d="M122.626 111.971C122.487 111.041 122.262 110.125 121.955 109.235C118.269 101.926 114.339 94.7972 107.996 89.3503C99.7706 82.2233 95.414 82.9166 96.1216 80.3083C96.6663 78.2731 98.5975 78.5206 100.868 78.9489C116.368 81.7616 121.222 92.3753 125.683 100.086C126.472 101.495 127.017 98.5535 130.328 92.8527C140.922 75.0272 150.17 78.6973 147.59 82.8192C145.01 86.941 141.607 89.9613 137.805 95.4368C130.247 106.369 130.37 109.969 127.741 114.165C127.573 114.501 127.318 114.786 127.002 114.988C126.687 115.191 126.322 115.304 125.947 115.316C125.572 115.328 125.2 115.238 124.871 115.056C124.542 114.874 124.267 114.606 124.076 114.281C123.645 113.552 123.13 112.75 122.626 111.971Z" fill="#9FA8BE" fill-opacity="0.6"/>
</g>
<defs>
<clipPath id="clip0_1105_14004">
<rect width="124.11" height="111.121" fill="white" transform="translate(156.982 102.818) rotate(157.71)"/>
</clipPath>
</defs>
</svg>
