<svg width="97" height="32" viewBox="0 0 97 32" fill="none" xmlns="http://www.w3.org/2000/svg">
<path d="M1 0.5H0.5V1V30.5518V31.0518H1H4.56836H5.06836V30.5518V20.3057H10.0029C12.8742 20.3057 15.2014 20.003 16.9594 19.3741C18.7358 18.7386 20.0688 17.6912 20.9157 16.2202C21.755 14.7625 22.1514 12.8262 22.1514 10.4541C22.1514 7.93107 21.7931 5.92259 21.0271 4.4785C20.2473 2.99439 18.9459 1.96183 17.1764 1.36704C15.446 0.780864 13.0449 0.5 10.0029 0.5H1ZM28.2213 0.5H27.5848L27.7355 1.11833L34.9337 30.6701L35.0267 31.0518H35.4195H39.8082H40.2025L40.2944 30.6683L46.2349 5.88255L51.9538 30.6642L52.0432 31.0518H52.441H56.8297H57.2222L57.3154 30.6704L64.5341 1.11865L64.6852 0.5H64.0484H60.6851H60.2864L60.1977 0.888683L54.5494 25.622L53.5042 20.7266L53.5042 20.7266L53.5024 20.7187L48.9292 0.887644L48.8398 0.5H48.442H43.8277H43.4305L43.3406 0.886944L38.7469 20.677L38.7467 20.6769L38.7442 20.6893L37.7367 25.5877L32.0719 0.888227L31.9828 0.5H31.5845H28.2213ZM79.7853 0.5H79.4396L79.3175 0.823407L68.1612 30.3752L67.9058 31.0518H68.629H72.2589H72.6048L72.7268 30.728L75.3939 23.6484H88.4432L91.1303 30.7292L91.2527 31.0518H91.5978H95.2071H95.9336L95.6742 30.3732L84.3744 0.821423L84.2515 0.5H83.9073H79.7853ZM15.0078 15.8196C13.9303 16.1403 12.2731 16.3115 10.0029 16.3115H5.06836V4.3916H10.0029C12.2725 4.3916 13.9275 4.56969 15.0025 4.90245C16.0456 5.22529 16.7313 5.78355 17.1244 6.5583C17.5358 7.3689 17.7676 8.64817 17.7676 10.4541C17.7676 12.2041 17.536 13.44 17.1273 14.2214C16.737 14.9674 16.0539 15.5083 15.0078 15.8196ZM76.7231 19.7568L81.8606 5.47999L87.0883 19.7568H76.7231Z" fill="#622CFD" stroke="#622CFD"/>
</svg>
