<svg width="63" height="21" viewBox="0 0 63 21" fill="none" xmlns="http://www.w3.org/2000/svg">
<g clip-path="url(#clip0_205_58)">
<path d="M6.54503 19.7237L6.57776 19.8293H6.68831H9.92393H10.0323L10.0663 19.7265L14.4377 6.52891L18.7838 19.7262L18.8177 19.8293H18.9262H22.1879H22.2986L22.3313 19.7235L27.9936 1.36486L28.0535 1.17066H27.8503H24.2754H24.1629L24.1314 1.27865L20.4327 13.9566L16.3553 1.27474L16.3218 1.17066H16.2125H12.6638H12.5546L12.521 1.27449L8.4179 13.9581L4.71873 1.27865L4.68722 1.17066H4.57473H0.9999H0.796387L0.85662 1.36505L6.54503 19.7237ZM39.9401 10.231C41.6893 9.54801 42.9807 8.11634 42.9807 5.99717C42.9807 4.49349 42.3258 3.20165 41.1825 2.28904C40.0415 1.37827 38.421 0.849976 36.4899 0.849976C33.3831 0.849976 31.2545 2.26739 29.7959 4.14132L29.7166 4.24323L29.8056 4.33681L31.7365 6.36775L31.8493 6.48642L31.9577 6.36365C33.1683 4.99194 34.4876 4.14295 36.2029 4.14295C38.093 4.14295 39.3929 5.15452 39.3929 6.53163C39.3929 7.28358 39.0717 7.85868 38.5024 8.24839C37.9267 8.64255 37.0866 8.85328 36.0482 8.84014H36.0463H34.0371H33.8871V8.99014V11.8762V12.0282L34.0391 12.0262L36.0463 11.9995H36.0473C37.2998 11.9996 38.2313 12.212 38.8452 12.607C39.4493 12.9955 39.7582 13.5681 39.7582 14.3347C39.7582 15.091 39.4462 15.7222 38.8823 16.1678C38.3153 16.616 37.4834 16.8838 36.4377 16.8838C34.5551 16.8838 32.8727 16.0246 31.6454 14.6105L31.5345 14.4827L31.4209 14.6082L29.4378 16.7995L29.3513 16.8951L29.4328 16.995C30.9231 18.8211 33.3667 20.15 36.5421 20.15C38.5912 20.15 40.2971 19.5813 41.4939 18.5994C42.6929 17.6158 43.3721 16.2238 43.3721 14.602C43.3721 12.2287 41.7182 10.8049 39.9401 10.231ZM62.1095 17.1094L62.2108 17.001L62.1035 16.8985L59.8072 14.7072L59.6927 14.598L59.5898 14.7182C58.4926 15.9985 56.9409 16.8036 55.2416 16.8036C52.0183 16.8036 49.2857 13.9392 49.2857 10.4866C49.2857 7.06121 52.018 4.19639 55.2416 4.19639C56.9154 4.19639 58.4924 5.00191 59.5625 6.2805L59.6653 6.40333L59.7812 6.2927L62.1035 4.0747L62.2116 3.9715L62.1088 3.86304C60.3607 2.0186 57.9217 0.849976 55.2416 0.849976C50.0435 0.849976 45.6718 5.24718 45.6718 10.4866C45.6718 15.7255 50.043 20.15 55.2416 20.15C57.9219 20.15 60.3612 18.9812 62.1095 17.1094Z" fill="#622CFD" stroke="#622CFD" stroke-width="0.3"/>
</g>
<defs>
<clipPath id="clip0_205_58">
<rect width="63" height="21" fill="white"/>
</clipPath>
</defs>
</svg>
