<svg width="47" height="47" viewBox="0 0 47 47" fill="none" xmlns="http://www.w3.org/2000/svg">
<g clip-path="url(#clip0_205_60)">
<path fill-rule="evenodd" clip-rule="evenodd" d="M32.7574 29.5824L29.8827 26.7077C28.9652 27.8975 27.8972 28.9655 26.7074 29.883L29.5821 32.7577C29.1268 33.5459 29.2353 34.5762 29.9074 35.248L41.0572 46.3978C41.8587 47.1992 43.1699 47.1992 43.9713 46.3978L46.3974 43.9716C47.1989 43.1702 47.1989 41.859 46.3974 41.0576L35.2476 29.9077C34.5755 29.2356 33.5452 29.1271 32.7574 29.5824ZM11.3887 16.458L15.4174 12.1989C15.115 11.7371 14.9384 11.185 14.9384 10.5918C14.9384 8.96954 16.2535 7.6548 17.8753 7.6548C19.4976 7.6548 20.8123 8.97 20.8123 10.5918C20.8123 10.7319 20.8023 10.8694 20.7833 11.0042L27.9202 13.824C28.4515 13.0681 29.3303 12.5737 30.3253 12.5737C30.8989 12.5737 31.4337 12.7385 31.8865 13.0226L38.3331 6.70029C38.0673 6.25855 37.9143 5.74086 37.9143 5.18735C37.9143 3.5651 39.2295 2.25036 40.8513 2.25036C42.4736 2.25036 43.7883 3.56556 43.7883 5.18735C43.7883 6.80961 42.4731 8.12435 40.8513 8.12435C40.2777 8.12435 39.7428 7.95955 39.29 7.67545L32.8446 13.9988C33.1104 14.4405 33.2634 14.9582 33.2634 15.5117C33.2634 17.1339 31.9482 18.4487 30.3264 18.4487C28.7041 18.4487 27.3894 17.1335 27.3894 15.5117C27.3894 15.3716 27.3994 15.234 27.4184 15.0993L20.2815 12.2794C19.7502 13.0354 18.8714 13.5298 17.8764 13.5298C17.3416 13.5298 16.84 13.3869 16.4079 13.1372L12.3792 17.3962C12.6816 17.858 12.8582 18.4101 12.8582 19.0033C12.8582 20.6256 11.543 21.9403 9.92123 21.9403C8.29897 21.9403 6.98424 20.6251 6.98424 19.0033C6.98424 17.3811 8.29943 16.0663 9.92123 16.0663C10.4554 16.0653 10.957 16.2086 11.3887 16.458ZM16.068 0.00062381C23.2984 0.00062381 29.4135 4.77697 31.4303 11.3467C31.0724 11.2521 30.7023 11.2038 30.3272 11.2038C29.3015 11.2038 28.3274 11.567 27.5611 12.2083L26.9245 11.9568C25.265 7.57631 21.0303 4.46121 16.0681 4.46121C9.65806 4.46121 4.46158 9.65779 4.46158 16.0678C4.46158 22.4778 9.65815 27.6743 16.0681 27.6743C21.5879 27.6743 26.2072 23.8212 27.3839 18.6579C28.1542 19.3787 29.1893 19.8201 30.3263 19.8201C30.8251 19.8201 31.3037 19.7352 31.749 19.5794C30.1472 26.7643 23.7351 32.1352 16.0676 32.1352C7.19414 32.1352 0 24.9416 0 16.0676C0.000716479 7.1934 7.19409 0.00062381 16.068 0.00062381Z" fill="#622CFD"/>
</g>
<defs>
<clipPath id="clip0_205_60">
<rect width="47" height="47" fill="white"/>
</clipPath>
</defs>
</svg>
