<svg width="36" height="53" viewBox="0 0 36 53" fill="none" xmlns="http://www.w3.org/2000/svg">
<g clip-path="url(#clip0_205_65)">
<path d="M15.232 29.461V27.4523C15.232 24.7182 17.4636 22.5421 20.1422 22.5421C21.4814 22.5421 22.709 23.0442 23.6574 23.9927C24.1039 24.4391 24.4942 24.9969 24.7177 25.6106C27.6192 22.9325 29.4606 19.0268 29.4606 14.7303C29.4606 6.58379 22.8768 0 14.7303 0C6.58379 0 0 6.58379 0 14.7303C0 22.8768 6.58379 29.4606 14.7303 29.4606C14.8969 29.461 15.0642 29.461 15.232 29.461ZM13.2233 20.0313C12.7769 20.0313 12.2748 19.8639 11.9401 19.5292L8.03441 15.6235C7.30893 14.898 7.30893 13.7822 8.03441 13.0567C8.75988 12.3311 9.87569 12.3312 10.6012 13.0567L13.1681 15.6235L18.8034 9.98817C19.5289 9.26269 20.6447 9.26269 21.3703 9.98817C22.0958 10.7136 22.0958 11.8295 21.3703 12.555L14.4506 19.5292C14.1159 19.8639 13.6693 20.0313 13.2233 20.0313Z" fill="#622CFD"/>
<path d="M35.2624 39.0024C35.2624 37.7192 34.2021 36.7146 32.9746 36.7146C32.1378 36.7146 31.4123 37.161 31.0215 37.7749V37.7192C31.0215 36.436 29.9613 35.4314 28.7338 35.4314C27.897 35.4314 27.1715 35.8779 26.7807 36.4917V36.436C26.7807 35.1528 25.7204 34.1483 24.4929 34.1483C23.6561 34.1483 22.9306 34.5947 22.5398 35.2085L22.5406 27.4524C22.5406 26.8386 22.3176 26.2249 21.8712 25.8345C21.4248 25.3881 20.867 25.165 20.2533 25.165C18.9701 25.165 17.9655 26.2253 17.9655 27.4528V41.7367C17.9655 41.8484 17.9099 41.9597 17.7425 42.0158C17.6308 42.0714 17.4634 42.0158 17.4078 41.9601L15.0643 39.6167C14.2832 38.8355 13 38.7238 12.1071 39.3376C11.549 39.7284 11.2143 40.2861 11.103 40.9555C10.9913 41.6249 11.2147 42.2947 11.6051 42.7968L17.4638 49.8271C19.1378 51.8357 21.5368 52.9516 24.1593 52.9516H27.6738C29.6824 52.9516 31.6355 52.1704 33.086 50.7199C34.5366 49.2693 35.3177 47.3719 35.3177 45.3076L35.2624 39.0024Z" fill="#622CFD"/>
</g>
<defs>
<clipPath id="clip0_205_65">
<rect width="36" height="53" fill="white"/>
</clipPath>
</defs>
</svg>
