<svg width="46" height="46" viewBox="0 0 46 46" fill="none" xmlns="http://www.w3.org/2000/svg">
<path d="M4.11833 5.41248C4.11833 4.65965 4.73926 4.04906 5.50507 4.04906H24.1471C24.9129 4.04906 25.5338 4.65962 25.5338 5.41248V28.401C25.5338 28.4347 25.5325 28.468 25.5302 28.5011L28.3983 30.303L29.6521 29.0575V1.01241C29.6521 0.453373 29.1913 0 28.6226 0H1.02958C0.461147 0 0 0.453381 0 1.01241V32.8017C0 33.3611 0.461164 33.8141 1.02958 33.8141H17.9393L15.4387 29.7647H5.5054C4.73961 29.7647 4.11866 29.1542 4.11866 28.401L4.11833 5.41248Z" fill="#622CFD"/>
<path d="M20.3809 25.2655L18.3609 23.9964C16.6478 22.9201 14.7351 23.825 14.0814 25.3096H9.82953C9.06373 25.3096 8.44312 24.6993 8.44312 23.9461V22.6236C8.44312 21.8705 9.06373 21.2598 9.82953 21.2598H20.0291C20.7949 21.2598 21.4159 21.8704 21.4159 22.6236V23.9461C21.4159 24.5797 20.9764 25.1125 20.3807 25.2654L20.3809 25.2655Z" fill="#622CFD"/>
<path d="M9.82953 14.7805C9.06373 14.7805 8.44312 15.3911 8.44312 16.1439V17.4668C8.44312 18.2196 9.06373 18.8302 9.82953 18.8302H20.0291C20.7949 18.8302 21.4159 18.2197 21.4159 17.4668V16.1439C21.4159 15.3911 20.7949 14.7805 20.0291 14.7805H9.82953Z" fill="#622CFD"/>
<path d="M9.82953 8.50348C9.06373 8.50348 8.44312 9.11372 8.44312 9.86691V11.1894C8.44312 11.9426 9.06373 12.5529 9.82953 12.5529H20.0291C20.7949 12.5529 21.4159 11.9426 21.4159 11.1894V9.86691C21.4159 9.11375 20.7949 8.50348 20.0291 8.50348H9.82953Z" fill="#622CFD"/>
<path fill-rule="evenodd" clip-rule="evenodd" d="M45.7456 16.9518C45.8674 16.8306 46.0648 16.9793 45.9776 17.1265L28.9169 45.9282C28.8605 46.0232 28.7215 46.0242 28.6635 45.9305L16.6611 26.4929C16.5801 26.3616 16.735 26.2129 16.8666 26.2955L28.6914 33.7247C28.7501 33.7613 28.8269 33.7529 28.8755 33.7043L45.7456 16.9518Z" fill="#622CFD"/>
</svg>
