<svg width="47" height="34" viewBox="0 0 47 34" fill="none" xmlns="http://www.w3.org/2000/svg">
<path d="M46.27 10.796L45.391 16.9654L44.2808 24.677L43.1856 32.3886C43.1856 32.7975 43.0231 33.1901 42.7337 33.479C42.4443 33.7684 42.0522 33.9308 41.6428 33.9308H4.62715C3.77509 33.9308 3.08442 33.2402 3.08442 32.3887L1.98922 24.6771L0.878957 16.9655L0 10.796C0 9.94397 0.690685 9.25385 1.54218 9.25385H30.8463V23.4432C30.8463 23.5454 30.8871 23.6433 30.9592 23.7159C31.0313 23.788 31.1297 23.8289 31.232 23.8289C31.3342 23.8257 31.4321 23.788 31.5095 23.7208L34.3475 19.6956L34.4244 19.5724V19.5719C34.4971 19.4966 34.5971 19.4541 34.702 19.4541C34.8069 19.4541 34.907 19.4966 34.9796 19.5719L35.0565 19.6951L37.8171 23.5971L37.894 23.7203L37.8946 23.7208C37.972 23.7881 38.0699 23.8257 38.1721 23.829C38.2743 23.829 38.3728 23.7881 38.4449 23.716C38.5169 23.6434 38.5578 23.5455 38.5578 23.4433V9.25393H44.7272C45.1361 9.25393 45.5287 9.41638 45.8176 9.70577C46.107 9.99464 46.2694 10.3873 46.2694 10.7961L46.27 10.796Z" fill="#622CFD"/>
<path d="M43.1847 4.62668V7.71105L38.5575 7.71159V6.94021C38.5575 6.73579 38.4763 6.53945 38.3316 6.39476C38.1869 6.25006 37.9911 6.16884 37.7861 6.16884H31.6172C31.1912 6.16884 30.8459 6.51418 30.8459 6.94022V7.7116H3.08411V1.54218C3.08411 0.69012 3.77479 0 4.62684 0H15.4228L16.348 0.308229H16.3943C17.4432 0.987084 18.3222 2.52931 19.4481 2.9456C19.6385 3.02844 19.8424 3.07577 20.05 3.08438H41.6425H41.642C42.0513 3.08438 42.4435 3.24683 42.7329 3.53622C43.0223 3.82509 43.1847 4.21786 43.1847 4.62668Z" fill="#622CFD"/>
</svg>
