<svg width="83" height="39" viewBox="0 0 83 39" fill="none" xmlns="http://www.w3.org/2000/svg">
<path d="M21.4091 10C21.0966 9.04356 20.6847 8.18655 20.1733 7.42898C19.6714 6.66193 19.0701 6.00852 18.3693 5.46875C17.678 4.92898 16.892 4.51704 16.0114 4.23295C15.1307 3.94886 14.1648 3.80682 13.1136 3.80682C11.3902 3.80682 9.82292 4.25189 8.41193 5.14205C7.00095 6.0322 5.87879 7.34375 5.04545 9.0767C4.21212 10.8097 3.79545 12.9356 3.79545 15.4545C3.79545 17.9735 4.21686 20.0994 5.05966 21.8324C5.90246 23.5653 7.04356 24.8769 8.48295 25.767C9.92235 26.6572 11.5417 27.1023 13.3409 27.1023C15.0076 27.1023 16.4754 26.7472 17.7443 26.0369C19.0227 25.3172 20.017 24.304 20.7273 22.9972C21.447 21.6809 21.8068 20.1326 21.8068 18.3523L22.8864 18.5795H14.1364V15.4545H25.2159V18.5795C25.2159 20.9754 24.7045 23.0587 23.6818 24.8295C22.6686 26.6004 21.267 27.9735 19.4773 28.9489C17.697 29.9148 15.6515 30.3977 13.3409 30.3977C10.7652 30.3977 8.50189 29.7917 6.55114 28.5795C4.60985 27.3674 3.0947 25.6439 2.00568 23.4091C0.926136 21.1742 0.386364 18.5227 0.386364 15.4545C0.386364 13.1534 0.694129 11.0843 1.30966 9.24716C1.93466 7.40057 2.81534 5.8286 3.9517 4.53125C5.08807 3.2339 6.43277 2.23958 7.9858 1.5483C9.53883 0.857007 11.2481 0.511363 13.1136 0.511363C14.6477 0.511363 16.0777 0.74337 17.4034 1.20739C18.7386 1.66193 19.9271 2.3106 20.9688 3.15341C22.0199 3.98674 22.8958 4.98579 23.5966 6.15057C24.2973 7.30587 24.7803 8.58902 25.0455 10H21.4091ZM44.5447 21.0795V8.18182H47.897V30H44.5447V26.3068H44.3175C43.8061 27.4148 43.0107 28.357 41.9311 29.1335C40.8516 29.9006 39.4879 30.2841 37.8402 30.2841C36.4766 30.2841 35.2644 29.9858 34.2038 29.3892C33.1432 28.7831 32.3099 27.8741 31.7038 26.6619C31.0978 25.4403 30.7947 23.9015 30.7947 22.0455V8.18182H34.147V21.8182C34.147 23.4091 34.5921 24.678 35.4822 25.625C36.3819 26.572 37.5277 27.0455 38.9197 27.0455C39.7531 27.0455 40.6006 26.8324 41.4624 26.4062C42.3336 25.9801 43.0627 25.3267 43.6499 24.446C44.2464 23.5653 44.5447 22.4432 44.5447 21.0795ZM57.3892 0.90909V30H54.0369V0.90909H57.3892ZM63.5291 38.1818V8.18182H66.7678V11.6477H67.1655C67.4117 11.2689 67.7526 10.786 68.1882 10.1989C68.6333 9.60227 69.2678 9.07197 70.0916 8.60795C70.925 8.13447 72.0518 7.89773 73.4723 7.89773C75.3094 7.89773 76.9287 8.35701 78.3303 9.27557C79.7318 10.1941 80.8255 11.4962 81.6115 13.1818C82.3975 14.8674 82.7905 16.8561 82.7905 19.1477C82.7905 21.4583 82.3975 23.4612 81.6115 25.1562C80.8255 26.8419 79.7365 28.1487 78.3445 29.0767C76.9524 29.9953 75.3473 30.4545 73.5291 30.4545C72.1276 30.4545 71.0054 30.2225 70.1626 29.7585C69.3198 29.285 68.6712 28.75 68.2166 28.1534C67.7621 27.5473 67.4117 27.0455 67.1655 26.6477H66.8814V38.1818H63.5291ZM66.8246 19.0909C66.8246 20.7386 67.0661 22.1922 67.549 23.4517C68.032 24.7017 68.7375 25.6818 69.6655 26.392C70.5935 27.0928 71.7299 27.4432 73.0746 27.4432C74.4761 27.4432 75.6456 27.0739 76.5831 26.3352C77.5301 25.5871 78.2403 24.5833 78.7138 23.3239C79.1967 22.0549 79.4382 20.6439 79.4382 19.0909C79.4382 17.5568 79.2015 16.1742 78.728 14.9432C78.264 13.7027 77.5585 12.7225 76.6115 12.0028C75.674 11.2737 74.495 10.9091 73.0746 10.9091C71.7109 10.9091 70.5651 11.2547 69.6371 11.946C68.709 12.6278 68.0083 13.5843 67.5348 14.8153C67.0613 16.0369 66.8246 17.4621 66.8246 19.0909Z" fill="#622CFD"/>
<path d="M21.4091 10L20.4585 10.3106L20.6838 11H21.4091V10ZM20.1733 7.42898L19.3365 7.9765L19.3404 7.98251L19.3444 7.98845L20.1733 7.42898ZM18.3693 5.46875L17.7539 6.25696L17.7591 6.26098L18.3693 5.46875ZM16.0114 4.23295L16.3184 3.28124L16.3184 3.28124L16.0114 4.23295ZM5.04545 9.0767L5.94667 9.51008L5.94667 9.51008L5.04545 9.0767ZM5.05966 21.8324L4.16037 22.2697L4.16037 22.2697L5.05966 21.8324ZM8.48295 25.767L7.95699 26.6175L8.48295 25.767ZM17.7443 26.0369L18.2327 26.9096L18.2349 26.9083L17.7443 26.0369ZM20.7273 22.9972L19.8499 22.5174L19.8486 22.5196L20.7273 22.9972ZM21.8068 18.3523L22.0128 17.3737L20.8068 17.1198V18.3523H21.8068ZM22.8864 18.5795V19.5795L23.0924 17.601L22.8864 18.5795ZM14.1364 18.5795H13.1364V19.5795H14.1364V18.5795ZM14.1364 15.4545V14.4545H13.1364V15.4545H14.1364ZM25.2159 15.4545H26.2159V14.4545H25.2159V15.4545ZM23.6818 24.8295L22.8159 24.3294L22.8139 24.3329L23.6818 24.8295ZM19.4773 28.9489L19.9542 29.8278L19.9558 29.8269L19.4773 28.9489ZM6.55114 28.5795L6.02151 29.4278L6.02336 29.4289L6.55114 28.5795ZM2.00568 23.4091L1.10523 23.8441L1.10673 23.8471L2.00568 23.4091ZM1.30966 9.24716L0.362439 8.92656L0.361466 8.92946L1.30966 9.24716ZM3.9517 4.53125L4.70394 5.19014L4.70394 5.19014L3.9517 4.53125ZM7.9858 1.5483L7.57914 0.634713L7.9858 1.5483ZM17.4034 1.20739L17.073 2.15128L17.0811 2.15404L17.4034 1.20739ZM20.9688 3.15341L20.3397 3.93086L20.3475 3.93702L20.9688 3.15341ZM23.5966 6.15057L22.7397 6.66609L22.7416 6.66918L23.5966 6.15057ZM25.0455 10V11H26.2509L26.0283 9.81531L25.0455 10ZM22.3596 9.68942C22.0212 8.65357 21.5704 7.71131 21.0021 6.8695L19.3444 7.98845C19.799 8.6618 20.172 9.43355 20.4585 10.3106L22.3596 9.68942ZM21.0101 6.88145C20.4492 6.02417 19.7722 5.28707 18.9795 4.67652L17.7591 6.26098C18.368 6.72997 18.8937 7.29969 19.3365 7.9765L21.0101 6.88145ZM18.9848 4.68056C18.196 4.06471 17.3044 3.59934 16.3184 3.28124L15.7044 5.18466C16.4796 5.43475 17.16 5.79324 17.7539 6.25694L18.9848 4.68056ZM16.3184 3.28124C15.326 2.96114 14.2551 2.80682 13.1136 2.80682V4.80682C14.0745 4.80682 14.9353 4.93658 15.7044 5.18466L16.3184 3.28124ZM13.1136 2.80682C11.2079 2.80682 9.45455 3.30192 7.87837 4.29629L8.9455 5.9878C10.1913 5.20187 11.5724 4.80682 13.1136 4.80682V2.80682ZM7.87837 4.29629C6.28548 5.30119 5.04628 6.76749 4.14424 8.64333L5.94667 9.51008C6.71129 7.92001 7.71641 6.7632 8.9455 5.9878L7.87837 4.29629ZM4.14424 8.64333C3.22898 10.5467 2.79545 12.8302 2.79545 15.4545H4.79545C4.79545 13.041 5.19526 11.0727 5.94667 9.51008L4.14424 8.64333ZM2.79545 15.4545C2.79545 18.0803 3.23418 20.3653 4.16037 22.2697L5.95895 21.395C5.19953 19.8335 4.79545 17.8667 4.79545 15.4545H2.79545ZM4.16037 22.2697C5.07421 24.1488 6.33508 25.6145 7.95699 26.6175L9.00892 24.9165C7.75204 24.1393 6.73071 22.9819 5.95895 21.395L4.16037 22.2697ZM7.95699 26.6175C9.56451 27.6117 11.3681 28.1023 13.3409 28.1023V26.1023C11.7152 26.1023 10.2802 25.7027 9.00892 24.9165L7.95699 26.6175ZM13.3409 28.1023C15.1533 28.1023 16.7939 27.7148 18.2327 26.9095L17.2559 25.1643C16.1568 25.7795 14.8619 26.1023 13.3409 26.1023V28.1023ZM18.2349 26.9083C19.6795 26.0951 20.8072 24.9442 21.6059 23.4747L19.8486 22.5196C19.2269 23.6637 18.366 24.5394 17.2538 25.1655L18.2349 26.9083ZM21.6047 23.4769C22.4186 21.9883 22.8068 20.2689 22.8068 18.3523H20.8068C20.8068 19.9962 20.4753 21.3735 19.8499 22.5174L21.6047 23.4769ZM21.6008 19.3308L22.6804 19.5581L23.0924 17.601L22.0128 17.3737L21.6008 19.3308ZM22.8864 17.5795H14.1364V19.5795H22.8864V17.5795ZM15.1364 18.5795V15.4545H13.1364V18.5795H15.1364ZM14.1364 16.4545H25.2159V14.4545H14.1364V16.4545ZM24.2159 15.4545V18.5795H26.2159V15.4545H24.2159ZM24.2159 18.5795C24.2159 20.8302 23.7367 22.7349 22.8159 24.3294L24.5478 25.3297C25.6724 23.3825 26.2159 21.1206 26.2159 18.5795H24.2159ZM22.8139 24.3329C21.8925 25.9431 20.6257 27.1841 18.9987 28.0708L19.9558 29.8269C21.9084 28.7628 23.4446 27.2576 24.5498 25.3262L22.8139 24.3329ZM19.0004 28.0699C17.386 28.9458 15.5087 29.3977 13.3409 29.3977V31.3977C15.7944 31.3977 18.0079 30.8838 19.9542 29.8278L19.0004 28.0699ZM13.3409 29.3977C10.9284 29.3977 8.85254 28.8322 7.07891 27.7302L6.02336 29.4289C8.15125 30.7511 10.6019 31.3977 13.3409 31.3977V29.3977ZM7.08076 27.7313C5.31231 26.6271 3.91882 25.0523 2.90463 22.971L1.10673 23.8471C2.27057 26.2355 3.90739 28.1077 6.02151 29.4278L7.08076 27.7313ZM2.90613 22.9741C1.90573 20.9031 1.38636 18.4069 1.38636 15.4545H-0.613636C-0.613636 18.6386 -0.0534524 21.4454 1.10523 23.8441L2.90613 22.9741ZM1.38636 15.4545C1.38636 13.2417 1.68238 11.2824 2.25785 9.56485L0.361466 8.92946C-0.294122 10.8861 -0.613636 13.0651 -0.613636 15.4545H1.38636ZM2.25687 9.56775C2.84521 7.82948 3.66475 6.37656 4.70394 5.19014L3.19947 3.87236C1.96594 5.28064 1.0241 6.97165 0.362443 8.92656L2.25687 9.56775ZM4.70394 5.19014C5.74634 4.00007 6.97366 3.09341 8.39245 2.46188L7.57914 0.634713C5.89187 1.38576 4.4298 2.46773 3.19947 3.87236L4.70394 5.19014ZM8.39245 2.46188C9.80548 1.83291 11.3744 1.51136 13.1136 1.51136V-0.488637C11.1218 -0.488637 9.27218 -0.118895 7.57914 0.634713L8.39245 2.46188ZM13.1136 1.51136C14.5456 1.51136 15.8628 1.72766 17.0731 2.15124L17.7338 0.263527C16.2925 -0.240921 14.7499 -0.488637 13.1136 -0.488637V1.51136ZM17.0811 2.15404C18.3109 2.57267 19.3943 3.16587 20.3398 3.93082L21.5977 2.376C20.4598 1.45533 19.1664 0.751188 17.7257 0.260735L17.0811 2.15404ZM20.3475 3.93702C21.3034 4.69484 22.0999 5.60268 22.7397 6.66609L24.4535 5.63505C23.6917 4.3689 22.7364 3.27865 21.59 2.36979L20.3475 3.93702ZM22.7416 6.66918C23.3762 7.71547 23.8183 8.88434 24.0627 10.1847L26.0283 9.81531C25.7423 8.29369 25.2185 6.89627 24.4516 5.63196L22.7416 6.66918ZM25.0455 9H21.4091V11H25.0455V9ZM44.5447 8.18182V7.18182H43.5447V8.18182H44.5447ZM47.897 8.18182H48.897V7.18182H47.897V8.18182ZM47.897 30V31H48.897V30H47.897ZM44.5447 30H43.5447V31H44.5447V30ZM44.5447 26.3068H45.5447V25.3068H44.5447V26.3068ZM44.3175 26.3068V25.3068H43.6776L43.4095 25.8878L44.3175 26.3068ZM41.9311 29.1335L42.5103 29.9487L42.515 29.9453L41.9311 29.1335ZM34.2038 29.3892L33.7077 30.2575L33.7136 30.2608L34.2038 29.3892ZM31.7038 26.6619L30.808 27.1064L30.8094 27.1091L31.7038 26.6619ZM30.7947 8.18182V7.18182H29.7947V8.18182H30.7947ZM34.147 8.18182H35.147V7.18182H34.147V8.18182ZM35.4822 25.625L34.7536 26.3099L34.7572 26.3137L35.4822 25.625ZM41.4624 26.4062L41.023 25.5079L41.0191 25.5099L41.4624 26.4062ZM43.6499 24.446L42.8219 23.8852L42.8178 23.8913L43.6499 24.446ZM45.5447 21.0795V8.18182H43.5447V21.0795H45.5447ZM44.5447 9.18182H47.897V7.18182H44.5447V9.18182ZM46.897 8.18182V30H48.897V8.18182H46.897ZM47.897 29H44.5447V31H47.897V29ZM45.5447 30V26.3068H43.5447V30H45.5447ZM44.5447 25.3068H44.3175V27.3068H44.5447V25.3068ZM43.4095 25.8878C42.9769 26.8252 42.2996 27.6367 41.3472 28.3217L42.515 29.9453C43.7217 29.0773 44.6354 28.0044 45.2254 26.7259L43.4095 25.8878ZM41.3519 28.3183C40.479 28.9386 39.3316 29.2841 37.8402 29.2841V31.2841C39.6443 31.2841 41.2241 30.8626 42.5103 29.9487L41.3519 28.3183ZM37.8402 29.2841C36.6272 29.2841 35.5876 29.0202 34.6941 28.5176L33.7136 30.2608C34.9412 30.9513 36.3259 31.2841 37.8402 31.2841V29.2841ZM34.7 28.521C33.8293 28.0234 33.1261 27.2703 32.5983 26.2147L30.8094 27.1091C31.4937 28.4778 32.4572 29.5429 33.7077 30.2574L34.7 28.521ZM32.5996 26.2175C32.0823 25.1746 31.7947 23.8001 31.7947 22.0455H29.7947C29.7947 24.0029 30.1133 25.706 30.808 27.1064L32.5996 26.2175ZM31.7947 22.0455V8.18182H29.7947V22.0455H31.7947ZM30.7947 9.18182H34.147V7.18182H30.7947V9.18182ZM33.147 8.18182V21.8182H35.147V8.18182H33.147ZM33.147 21.8182C33.147 23.6035 33.6519 25.1379 34.7536 26.3099L36.2109 24.9401C35.5323 24.2182 35.147 23.2147 35.147 21.8182H33.147ZM34.7572 26.3137C35.8591 27.4736 37.2737 28.0455 38.9197 28.0455V26.0455C37.7817 26.0455 36.9046 25.6703 36.2072 24.9363L34.7572 26.3137ZM38.9197 28.0455C39.9288 28.0455 40.9273 27.7865 41.9056 27.3026L41.0191 25.5099C40.274 25.8783 39.5773 26.0455 38.9197 26.0455V28.0455ZM41.9017 27.3045C42.9463 26.7936 43.8059 26.0148 44.4819 25.0007L42.8178 23.8913C42.3196 24.6386 41.7209 25.1666 41.023 25.508L41.9017 27.3045ZM44.4778 25.0069C45.2143 23.9196 45.5447 22.587 45.5447 21.0795H43.5447C43.5447 22.2993 43.2786 23.2111 42.8219 23.8852L44.4778 25.0069ZM57.3892 0.90909H58.3892V-0.09091H57.3892V0.90909ZM57.3892 30V31H58.3892V30H57.3892ZM54.0369 30H53.0369V31H54.0369V30ZM54.0369 0.90909V-0.09091H53.0369V0.90909H54.0369ZM56.3892 0.90909V30H58.3892V0.90909H56.3892ZM57.3892 29H54.0369V31H57.3892V29ZM55.0369 30V0.90909H53.0369V30H55.0369ZM54.0369 1.90909H57.3892V-0.09091H54.0369V1.90909ZM63.5291 38.1818H62.5291V39.1818H63.5291V38.1818ZM63.5291 8.18182V7.18182H62.5291V8.18182H63.5291ZM66.7678 8.18182H67.7678V7.18182H66.7678V8.18182ZM66.7678 11.6477H65.7678V12.6477H66.7678V11.6477ZM67.1655 11.6477V12.6477H67.7082L68.0039 12.1927L67.1655 11.6477ZM68.1882 10.1989L67.3867 9.6009L67.3851 9.60302L68.1882 10.1989ZM70.0916 8.60795L70.5824 9.47927L70.5856 9.47741L70.0916 8.60795ZM78.3303 9.27557L78.8784 8.4392L78.8784 8.4392L78.3303 9.27557ZM81.6115 13.1818L82.5178 12.7592L82.5178 12.7592L81.6115 13.1818ZM81.6115 25.1562L82.5178 25.5789L82.5187 25.5769L81.6115 25.1562ZM78.3445 29.0767L78.8952 29.9114L78.8992 29.9088L78.3445 29.0767ZM70.1626 29.7585L69.6728 30.6304L69.6803 30.6345L70.1626 29.7585ZM68.2166 28.1534L67.4166 28.7534L67.4212 28.7595L68.2166 28.1534ZM67.1655 26.6477L68.0157 26.1214L67.7225 25.6477H67.1655V26.6477ZM66.8814 26.6477V25.6477H65.8814V26.6477H66.8814ZM66.8814 38.1818V39.1818H67.8814V38.1818H66.8814ZM67.549 23.4517L66.6153 23.8097L66.6162 23.8121L67.549 23.4517ZM69.6655 26.392L69.0577 27.1862L69.0629 27.1901L69.6655 26.392ZM76.5831 26.3352L77.202 27.1207L77.203 27.1199L76.5831 26.3352ZM78.7138 23.3239L77.7792 22.9682L77.7777 22.972L78.7138 23.3239ZM78.728 14.9432L77.7913 15.2935L77.7946 15.3022L78.728 14.9432ZM76.6115 12.0028L75.9975 12.7922L76.0064 12.799L76.6115 12.0028ZM69.6371 11.946L70.2292 12.7519L70.2345 12.748L69.6371 11.946ZM67.5348 14.8153L68.4672 15.1767L68.4681 15.1743L67.5348 14.8153ZM64.5291 38.1818V8.18182H62.5291V38.1818H64.5291ZM63.5291 9.18182H66.7678V7.18182H63.5291V9.18182ZM65.7678 8.18182V11.6477H67.7678V8.18182H65.7678ZM66.7678 12.6477H67.1655V10.6477H66.7678V12.6477ZM68.0039 12.1927C68.2342 11.8385 68.5615 11.374 68.9913 10.7947L67.3851 9.60302C66.9437 10.198 66.5892 10.6994 66.327 11.1027L68.0039 12.1927ZM68.9897 10.7968C69.3321 10.3379 69.8483 9.89268 70.5824 9.47926L69.6009 7.73665C68.6872 8.25126 67.9345 8.86665 67.3867 9.6009L68.9897 10.7968ZM70.5856 9.47741C71.2129 9.12102 72.1475 8.89773 73.4723 8.89773V6.89773C71.9562 6.89773 70.637 7.14792 69.5976 7.7385L70.5856 9.47741ZM73.4723 8.89773C75.1342 8.89773 76.5591 9.31036 77.7821 10.1119L78.8784 8.4392C77.2984 7.40366 75.4847 6.89773 73.4723 6.89773V8.89773ZM77.7821 10.1119C79.0113 10.9176 79.9889 12.0683 80.7052 13.6044L82.5178 12.7592C81.6622 10.9242 80.4522 9.47066 78.8784 8.4392L77.7821 10.1119ZM80.7052 13.6044C81.4169 15.1306 81.7905 16.969 81.7905 19.1477H83.7905C83.7905 16.7432 83.3781 14.6042 82.5178 12.7592L80.7052 13.6044ZM81.7905 19.1477C81.7905 21.3466 81.4165 23.1997 80.7043 24.7356L82.5187 25.5769C83.3785 23.7227 83.7905 21.5701 83.7905 19.1477H81.7905ZM80.7052 24.7336C79.9878 26.2722 79.0127 27.4294 77.7898 28.2447L78.8992 29.9088C80.4603 28.868 81.6633 27.4115 82.5178 25.5789L80.7052 24.7336ZM77.7937 28.242C76.5798 29.043 75.1699 29.4545 73.5291 29.4545V31.4545C75.5247 31.4545 77.325 30.9475 78.8952 29.9114L77.7937 28.242ZM73.5291 29.4545C72.2244 29.4545 71.2878 29.2364 70.6449 28.8825L69.6803 30.6345C70.7231 31.2086 72.0308 31.4545 73.5291 31.4545V29.4545ZM70.6524 28.8867C69.8956 28.4615 69.3637 28.009 69.0121 27.5474L67.4212 28.7595C67.9786 29.491 68.744 30.1086 69.6728 30.6304L70.6524 28.8867ZM69.0166 27.5534C68.5705 26.9585 68.2398 26.4833 68.0157 26.1214L66.3152 27.1741C66.5836 27.6077 66.9537 28.1362 67.4166 28.7534L69.0166 27.5534ZM67.1655 25.6477H66.8814V27.6477H67.1655V25.6477ZM65.8814 26.6477V38.1818H67.8814V26.6477H65.8814ZM66.8814 37.1818H63.5291V39.1818H66.8814V37.1818ZM65.8246 19.0909C65.8246 20.8348 66.08 22.4138 66.6153 23.8097L68.4827 23.0937C68.0521 21.9707 67.8246 20.6425 67.8246 19.0909H65.8246ZM66.6162 23.8121C67.1556 25.2081 67.9631 26.3484 69.0577 27.1862L70.2732 25.5979C69.5119 25.0152 68.9083 24.1953 68.4818 23.0913L66.6162 23.8121ZM69.0629 27.1901C70.1907 28.0417 71.5478 28.4432 73.0746 28.4432V26.4432C71.912 26.4432 70.9963 26.1439 70.2681 25.594L69.0629 27.1901ZM73.0746 28.4432C74.6599 28.4432 76.0586 28.0216 77.202 27.1207L75.9642 25.5497C75.2326 26.1261 74.2923 26.4432 73.0746 26.4432V28.4432ZM77.203 27.1199C78.3087 26.2464 79.1199 25.0855 79.6498 23.6758L77.7777 22.972C77.3607 24.0812 76.7514 24.9279 75.9632 25.5505L77.203 27.1199ZM79.6484 23.6796C80.1803 22.2819 80.4382 20.7482 80.4382 19.0909H78.4382C78.4382 20.5397 78.2131 21.8279 77.7792 22.9682L79.6484 23.6796ZM80.4382 19.0909C80.4382 17.4538 80.1854 15.9469 79.6613 14.5842L77.7946 15.3022C78.2175 16.4016 78.4382 17.6599 78.4382 19.0909H80.4382ZM79.6646 14.5928C79.1422 13.1961 78.3307 12.0534 77.2166 11.2067L76.0064 12.799C76.7863 13.3917 77.3858 14.2092 77.7914 15.2935L79.6646 14.5928ZM77.2254 11.2135C76.0799 10.3225 74.6723 9.90909 73.0746 9.90909V11.9091C74.3177 11.9091 75.2681 12.2249 75.9976 12.7922L77.2254 11.2135ZM73.0746 9.90909C71.5354 9.90909 70.1697 10.3023 69.0397 11.1441L70.2345 12.748C70.9605 12.2071 71.8865 11.9091 73.0746 11.9091V9.90909ZM69.045 11.1401C67.9413 11.951 67.1334 13.0734 66.6015 14.4564L68.4681 15.1743C68.8832 14.0952 69.4768 13.3047 70.2292 12.7519L69.045 11.1401ZM66.6024 14.4539C66.0748 15.815 65.8246 17.3675 65.8246 19.0909H67.8246C67.8246 17.5567 68.0478 16.2588 68.4672 15.1767L66.6024 14.4539Z" fill="#622CFD"/>
</svg>
