<svg width="39" height="38" viewBox="0 0 39 38" fill="none" xmlns="http://www.w3.org/2000/svg">
<path d="M15.5444 27.6359C15.0863 27.6359 14.6471 27.4537 14.3233 27.1298C13.9991 26.806 13.8173 26.3667 13.8173 25.9085V1.72799C13.8173 1.11094 14.1466 0.540733 14.681 0.232204C15.2153 -0.0763255 15.8737 -0.0763255 16.4081 0.232204C16.9424 0.540733 17.2718 1.11093 17.2718 1.72799V25.9085C17.2718 26.3668 17.0896 26.806 16.7658 27.1298C16.4419 27.4537 16.0026 27.6359 15.5444 27.6359Z" fill="#622CFD"/>
<path d="M24.181 27.6359C23.723 27.6359 23.2834 27.4537 22.9596 27.1298C22.6357 26.806 22.4539 26.3667 22.4539 25.9085V1.72799C22.4539 1.11094 22.7829 0.540733 23.3173 0.232204C23.8516 -0.0763255 24.5103 -0.0763255 25.0447 0.232204C25.579 0.540733 25.9081 1.11093 25.9081 1.72799V25.9085C25.9081 26.3668 25.7262 26.806 25.4024 27.1298C25.0785 27.4537 24.639 27.6359 24.181 27.6359Z" fill="#622CFD"/>
<path d="M13.921 15.5449H12.9539C10.1771 15.5449 7.61115 14.0635 6.22292 11.6587C4.83439 9.2541 4.83439 6.29109 6.22292 3.88622C7.61115 1.48165 10.1771 0 12.9539 0H31.0896C31.7066 0 32.2768 0.329345 32.5854 0.863704C32.8939 1.39806 32.8939 2.05644 32.5854 2.59082C32.2768 3.12518 31.7066 3.45452 31.0896 3.45452H12.9539C11.4112 3.45452 9.98567 4.27744 9.21449 5.61363C8.44302 6.94953 8.44302 8.59566 9.21449 9.93156C9.98567 11.2675 11.4112 12.0907 12.9539 12.0907H13.921C14.5381 12.0907 15.1083 12.4197 15.4168 12.9541C15.7254 13.4884 15.7254 14.1471 15.4168 14.6815C15.1083 15.2159 14.5381 15.5449 13.921 15.5449Z" fill="#622CFD"/>
<path d="M31.0897 37.9995C30.6309 38.0021 30.1896 37.822 29.8635 37.4984C29.5364 37.1743 29.3525 36.7327 29.3525 36.2722C29.3525 35.8118 29.5364 35.3703 29.8635 35.0459L33.8362 31.0905L29.8635 27.1352C29.4254 26.6971 29.2542 26.0586 29.4147 25.4601C29.5752 24.8615 30.0425 24.3943 30.641 24.2338C31.2395 24.0733 31.878 24.2445 32.316 24.6826L37.4977 29.8642C37.8247 30.1886 38.0086 30.6302 38.0086 31.0905C38.0086 31.5511 37.8247 31.9927 37.4977 32.3168L32.316 37.4984C31.9902 37.822 31.5489 38.0021 31.0897 37.9995Z" fill="#622CFD"/>
<path d="M36.2709 32.8179H1.72719C1.11014 32.8179 0.539926 32.4885 0.231397 31.9542C-0.0771323 31.4198 -0.0771323 30.7614 0.231397 30.2271C0.539926 29.6927 1.11013 29.3634 1.72719 29.3634H36.2709C36.888 29.3634 37.4582 29.6927 37.7667 30.2271C38.0752 30.7614 38.0752 31.4198 37.7667 31.9542C37.4582 32.4885 36.888 32.8179 36.2709 32.8179Z" fill="#622CFD"/>
</svg>
