<svg width="35" height="35" viewBox="0 0 35 35" fill="none" xmlns="http://www.w3.org/2000/svg">
<path d="M1.35373 12.3757L16.5313 19.8574C17.0896 20.1313 17.7208 20.1313 18.2791 19.8574L33.4567 12.3757C33.9951 12.1116 34.4218 11.6143 34.6438 10.9911C34.8659 10.3683 34.8659 9.66943 34.6438 9.04616C34.4218 8.42288 33.9951 7.92558 33.4567 7.66158L18.2791 0.205749C17.7208 -0.068583 17.0895 -0.068583 16.5313 0.205749L1.35373 7.68697C0.815249 7.95103 0.388586 8.44832 0.166543 9.07156C-0.0554995 9.6948 -0.0555293 10.3937 0.166543 11.017C0.388616 11.6398 0.815279 12.1375 1.35373 12.4015V12.3757Z" fill="#622CFD"/>
<path d="M31.7088 22.6243L17.4049 29.6189L3.10098 22.6243C2.36955 22.265 1.52668 22.3821 0.890396 22.9317C0.254084 23.4817 -0.0790242 24.3802 0.0168653 25.2889C0.112371 26.1977 0.62173 26.9791 1.35353 27.3384L16.5311 34.7942C17.0894 35.0686 17.7206 35.0686 18.2789 34.7942L33.4565 27.313C34.0528 27.0919 34.5408 26.5914 34.8002 25.9351C35.0595 25.2787 35.0669 24.5268 34.8196 23.8642C34.5727 23.2016 34.0944 22.6892 33.5023 22.4532C32.9102 22.2173 32.2592 22.2794 31.709 22.6243L31.7088 22.6243Z" fill="#622CFD"/>
<path d="M31.7088 15.1426L17.4049 22.1695L3.10098 15.1234C2.36955 14.7641 1.52668 14.8816 0.890396 15.4312C0.254084 15.9808 -0.0790242 16.8793 0.0168653 17.7885C0.112371 18.6973 0.62173 19.4787 1.35353 19.838L16.5311 27.313C17.0894 27.5869 17.7207 27.5869 18.2789 27.313L33.4565 19.8572C34.1883 19.498 34.6976 18.7165 34.7931 17.8077C34.889 16.8985 34.5559 15.9999 33.9196 15.4504C33.2833 14.9008 32.4404 14.7833 31.709 15.1426H31.7088Z" fill="#622CFD"/>
</svg>
