<svg width="41" height="47" viewBox="0 0 41 47" fill="none" xmlns="http://www.w3.org/2000/svg">
<g clip-path="url(#clip0_205_36)">
<path d="M3.11837 25.5425V29.2812H6.74153V25.5425H8.93582V35.2719H6.74153V31.201H3.11837V35.2719H0.909668V25.5425H3.11837Z" fill="#622CFD"/>
<path d="M12.7322 27.3903H10.1196V25.5425H17.5974V27.3903H14.9413V35.2721H12.7326L12.7322 27.3903Z" fill="#622CFD"/>
<path d="M26.9375 31.5482C26.8943 30.3789 26.8508 28.9644 26.8508 27.5496H26.8076C26.5045 28.7909 26.1004 30.1765 25.725 31.3171L24.5412 35.1134H22.8234L21.784 31.3458C21.4666 30.2053 21.1344 28.8197 20.9033 27.5496H20.8745C20.8169 28.8633 20.7734 30.3644 20.7014 31.5769L20.5283 35.2724H18.4927L19.1135 25.543H22.0439L22.9966 28.7908C23.2996 29.9169 23.603 31.1294 23.8193 32.2699H23.8625C24.1367 31.1439 24.4689 29.8593 24.7863 28.7764L25.8257 25.543H28.6981L29.2326 35.2724H27.0814L26.9375 31.5482Z" fill="#622CFD"/>
<path d="M30.9214 25.5425H33.1301V33.4244H36.9987V35.2721H30.9214V25.5425Z" fill="#622CFD"/>
<path d="M26.7507 10.695H33.7623C31.6583 7.74138 27.5416 3.06083 25.2134 1.01416V8.93006C25.2131 9.90334 25.9027 10.695 26.7507 10.695Z" fill="#622CFD"/>
<path d="M35.0796 19.2315V13.2033H26.75C24.697 13.2033 23.0264 11.2865 23.0264 8.93014V0H2.63087C1.17778 0 0 1.35163 0 3.01936V12.3123H0.00556354V21.157H39.074V39.2711H0.00640152V43.8152C0.0640005 45.4237 1.21535 46.7085 2.63174 46.7085H32.45C33.9031 46.7085 35.0805 45.3566 35.0805 43.6895V41.196H40.9998V19.2322L35.0796 19.2315Z" fill="#622CFD"/>
</g>
<defs>
<clipPath id="clip0_205_36">
<rect width="41" height="47" fill="white"/>
</clipPath>
</defs>
</svg>
