<svg width="47" height="39" viewBox="0 0 47 39" fill="none" xmlns="http://www.w3.org/2000/svg">
<g clip-path="url(#clip0_205_49)">
<mask id="mask0_205_49" style="mask-type:luminance" maskUnits="userSpaceOnUse" x="0" y="0" width="47" height="39">
<path d="M47 0H0V39H47V0Z" fill="white"/>
</mask>
<g mask="url(#mask0_205_49)">
<path d="M5.18478 5.09676C5.0961 2.44515 7.08011 0 9.76186 0H37.2415C39.9233 0 41.9073 2.44515 41.8186 5.09676C41.7334 7.6439 41.844 10.9434 42.6415 13.6338C43.4415 16.3324 44.7905 18.0382 47 18.2574V20.7426C44.7905 20.9618 43.4415 22.6676 42.6415 25.3662C41.844 28.0566 41.7334 31.3561 41.8186 33.9033C41.9073 36.5549 39.9233 39 37.2415 39H9.76186C7.08011 39 5.0961 36.5549 5.18487 33.9033C5.26997 31.3561 5.15935 28.0566 4.36182 25.3662C3.5619 22.6676 2.20955 20.9618 0 20.7426V18.2574C2.20946 18.0382 3.5619 16.3324 4.36182 13.6338C5.15935 10.9434 5.26997 7.6439 5.18478 5.09676Z" fill="#622CFD"/>
<g filter="url(#filter0_d_205_49)">
<path d="M24.519 29.8672C28.8607 29.8672 31.477 27.6535 31.477 24.0023C31.477 21.2424 29.6103 19.2443 26.8384 18.928V18.813C28.8749 18.4681 30.473 16.4988 30.473 14.2995C30.473 11.1658 28.0971 9.12451 24.4766 9.12451H16.3306V29.8672H24.519ZM19.4985 11.7551H23.713C26.004 11.7551 27.3051 12.8188 27.3051 14.745C27.3051 16.8006 25.7919 17.9506 23.0483 17.9506H19.4985V11.7551ZM19.4985 27.2367V20.4087H23.6846C26.6828 20.4087 28.2385 21.5586 28.2385 23.8011C28.2385 26.0435 26.7253 27.2367 23.8685 27.2367H19.4985Z" fill="url(#paint0_linear_205_49)"/>
<path d="M24.519 29.8672C28.8607 29.8672 31.477 27.6535 31.477 24.0023C31.477 21.2424 29.6103 19.2443 26.8384 18.928V18.813C28.8749 18.4681 30.473 16.4988 30.473 14.2995C30.473 11.1658 28.0971 9.12451 24.4766 9.12451H16.3306V29.8672H24.519ZM19.4985 11.7551H23.713C26.004 11.7551 27.3051 12.8188 27.3051 14.745C27.3051 16.8006 25.7919 17.9506 23.0483 17.9506H19.4985V11.7551ZM19.4985 27.2367V20.4087H23.6846C26.6828 20.4087 28.2385 21.5586 28.2385 23.8011C28.2385 26.0435 26.7253 27.2367 23.8685 27.2367H19.4985Z" stroke="white"/>
</g>
</g>
</g>
<defs>
<filter id="filter0_d_205_49" x="-0.169434" y="-3.37549" width="48.1465" height="53.7427" filterUnits="userSpaceOnUse" color-interpolation-filters="sRGB">
<feFlood flood-opacity="0" result="BackgroundImageFix"/>
<feColorMatrix in="SourceAlpha" type="matrix" values="0 0 0 0 0 0 0 0 0 0 0 0 0 0 0 0 0 0 127 0" result="hardAlpha"/>
<feOffset dy="4"/>
<feGaussianBlur stdDeviation="8"/>
<feColorMatrix type="matrix" values="0 0 0 0 0 0 0 0 0 0 0 0 0 0 0 0 0 0 0.15 0"/>
<feBlend mode="normal" in2="BackgroundImageFix" result="effect1_dropShadow_205_49"/>
<feBlend mode="normal" in="SourceGraphic" in2="effect1_dropShadow_205_49" result="shape"/>
</filter>
<linearGradient id="paint0_linear_205_49" x1="17.7632" y1="10.4898" x2="27.5047" y2="26.3113" gradientUnits="userSpaceOnUse">
<stop stop-color="white"/>
<stop offset="1" stop-color="#FFF0E4"/>
</linearGradient>
<clipPath id="clip0_205_49">
<rect width="47" height="39" fill="white"/>
</clipPath>
</defs>
</svg>
